<svg width="149" height="149" viewBox="0 0 149 149" fill="none" xmlns="http://www.w3.org/2000/svg">
<path d="M72.879 2.24284C73.6774 1.1382 75.3226 1.1382 76.121 2.24284L85.6765 15.4642C86.2783 16.297 87.4133 16.5382 88.3018 16.0223L102.409 7.83049C103.587 7.14608 105.09 7.81525 105.37 9.14911L108.722 25.114C108.933 26.1196 109.872 26.8016 110.894 26.6916L127.113 24.9459C128.468 24.8001 129.569 26.0227 129.282 27.3551L125.851 43.3031C125.635 44.3076 126.215 45.3124 127.193 45.6275L142.72 50.6297C144.017 51.0476 144.525 52.6123 143.722 53.7129L134.1 66.8864C133.494 67.7161 133.615 68.8701 134.381 69.5557L146.531 80.4408C147.546 81.3503 147.374 82.9865 146.192 83.665L132.044 91.7862C131.153 92.2977 130.794 93.4012 131.215 94.3388L137.887 109.225C138.444 110.468 137.622 111.893 136.266 112.032L120.038 113.697C119.016 113.802 118.24 114.664 118.242 115.692L118.283 132.004C118.286 133.367 116.955 134.334 115.66 133.91L100.158 128.83C99.182 128.51 98.122 128.982 97.7065 129.922L91.1087 144.841C90.5574 146.088 88.9481 146.43 87.9376 145.515L75.842 134.569C75.0801 133.88 73.9199 133.88 73.158 134.569L61.0624 145.515C60.0519 146.43 58.4426 146.088 57.8913 144.841L51.2935 129.922C50.878 128.982 49.818 128.51 48.8416 128.83L33.3397 133.91C32.0445 134.334 30.7135 133.367 30.7169 132.004L30.7577 115.692C30.7603 114.664 29.9839 113.802 28.9618 113.697L12.7339 112.032C11.3781 111.893 10.5555 110.468 11.113 109.225L17.7853 94.3388C18.2055 93.4012 17.847 92.2977 16.9559 91.7862L2.80811 83.665C1.62607 82.9865 1.4541 81.3503 2.46923 80.4408L14.6194 69.5557C15.3847 68.8701 15.5059 67.7161 14.8999 66.8864L5.27845 53.7129C4.47458 52.6123 4.98298 51.0476 6.28026 50.6297L21.8074 45.6275C22.7854 45.3124 23.3655 44.3076 23.1494 43.3031L19.7178 27.3551C19.4311 26.0227 20.532 24.8001 21.8871 24.9459L38.1064 26.6916C39.128 26.8016 40.0667 26.1196 40.2778 25.114L43.6295 9.14911C43.9096 7.81525 45.4126 7.14608 46.5912 7.83049L60.6982 16.0223C61.5867 16.5382 62.7217 16.297 63.3235 15.4642L72.879 2.24284Z" fill="#093CF2"/>
<path d="M47.9756 48.3418L48.6439 46.5419L39.6666 43.2091L33.6608 59.3862L35.4383 60.0461L38.1029 52.8688L43.5028 54.8734L44.171 53.0735L38.7711 51.0688L40.7758 45.6689L47.9756 48.3418ZM52.0796 66.2497L52.7479 64.4498L47.348 62.4451L46.6797 64.245L52.0796 66.2497ZM47.348 62.4451L50.0209 55.2452L48.2434 54.5854L45.5705 61.7852L47.348 62.4451ZM55.4208 57.2499L56.089 55.45L50.6891 53.4453L50.0209 55.2452L55.4208 57.2499ZM54.5478 65.118L57.2207 57.9181L55.4208 57.2499L52.7479 64.4498L54.5478 65.118ZM57.9379 68.399L63.9436 52.2218L62.1661 51.5619L56.1604 67.7391L57.9379 68.399ZM61.9807 69.8999L67.9865 53.7227L66.209 53.0628L60.2033 69.24L61.9807 69.8999ZM71.4152 73.428L72.0834 71.628L66.6835 69.6233L66.0153 71.4233L71.4152 73.428ZM66.6835 69.6233L69.3564 62.4235L67.579 61.7636L64.906 68.9635L66.6835 69.6233ZM74.7563 64.4282L75.4245 62.6282L70.0247 60.6235L69.3564 62.4235L74.7563 64.4282ZM73.8834 72.2962L76.5563 65.0964L74.7563 64.4282L72.0834 71.628L73.8834 72.2962ZM78.6015 71.9998L81.2828 64.7774L79.5053 64.1176L76.824 71.3399L78.6015 71.9998ZM82.2014 73.3363L83.5379 69.7363L81.7379 69.0681L80.4015 72.668L82.2014 73.3363ZM79.0734 76.2455L80.4015 72.668L78.6015 71.9998L77.2734 75.5772L79.0734 76.2455ZM86.2732 78.9184L87.6013 75.3409L85.8014 74.6727L84.4733 78.2501L86.2732 78.9184ZM89.4013 76.0092L92.0826 68.7868L90.2826 68.1186L87.6013 75.3409L89.4013 76.0092ZM85.3379 70.4046L86.6827 66.7821L84.8827 66.1139L83.5379 69.7363L85.3379 70.4046ZM85.8014 74.6727L87.1378 71.0728L85.3379 70.4046L84.0014 74.0045L85.8014 74.6727ZM102.44 84.9458L105.781 75.946L104.004 75.2861L100.662 84.2859L102.44 84.9458ZM99.272 71.4815L95.2709 82.2587L97.0484 82.9186L100.381 73.9413L104.004 75.2861L104.672 73.4861L99.272 71.4815ZM107.84 86.9505L111.181 77.9507L109.381 77.2824L106.04 86.2823L107.84 86.9505ZM109.381 77.2824L110.049 75.4825L106.449 74.146L105.781 75.946L109.381 77.2824ZM117.293 90.46L117.961 88.66L112.561 86.6553L111.893 88.4553L117.293 90.46ZM119.761 89.3283L120.43 87.5283L118.63 86.8601L117.961 88.66L119.761 89.3283ZM120.634 81.4602L121.303 79.6602L115.903 77.6555L115.234 79.4555L120.634 81.4602ZM121.098 85.7283L122.434 82.1284L120.634 81.4602L119.966 83.2601L114.566 81.2555L115.234 79.4555L113.457 78.7956L110.784 85.9955L112.561 86.6553L113.898 83.0554L121.098 85.7283ZM33.4073 83.8515L34.0755 82.0516L28.6756 80.0469L28.0074 81.8468L33.4073 83.8515ZM28.6756 80.0469L31.3485 72.847L29.5711 72.1871L26.8982 79.387L28.6756 80.0469ZM36.7484 74.8517L37.4167 73.0517L32.0168 71.0471L31.3485 72.847L36.7484 74.8517ZM35.8755 82.7198L38.5484 75.5199L36.7484 74.8517L34.0755 82.0516L35.8755 82.7198ZM43.2665 75.2235L41.4891 74.5636L37.4881 85.3409L39.2655 86.0008L41.9301 78.8234L43.73 79.4917L44.3983 77.6917L42.5983 77.0235L43.2665 75.2235ZM46.457 88.6962L49.7982 79.6964L47.9982 79.0281L44.6571 88.028L46.457 88.6962ZM47.9982 79.0281L48.6664 77.2282L45.0665 75.8917L44.3983 77.6917L47.9982 79.0281ZM60.8286 94.0316L61.4968 92.2316L56.0969 90.2269L55.4287 92.0269L60.8286 94.0316ZM63.2968 92.8999L65.3015 87.5L63.5015 86.8317L61.4968 92.2316L63.2968 92.8999ZM56.0969 90.2269L56.7652 88.427L54.9877 87.7671L54.3195 89.5671L56.0969 90.2269ZM66.1744 79.6319L66.8427 77.8319L61.4428 75.8272L60.7745 77.6272L66.1744 79.6319ZM67.3062 82.1001L67.9744 80.3001L66.1744 79.6319L65.5062 81.4318L67.3062 82.1001ZM58.7699 83.0271L60.7745 77.6272L58.9971 76.9673L56.9924 82.3672L58.7699 83.0271ZM63.5015 86.8317L64.1698 85.0318L58.7699 83.0271L58.1016 84.827L63.5015 86.8317ZM70.0196 87.2035L75.4195 89.2082L76.0878 87.4082L68.9104 84.7437L63.5729 99.1209L65.3504 99.7808L66.6868 96.1808L72.0867 98.1855L72.7466 96.4081L67.3467 94.4034L70.0196 87.2035ZM74.5466 97.0763L77.2195 89.8764L75.4195 89.2082L72.7466 96.4081L74.5466 97.0763ZM83.3282 102.384L83.9964 100.584L78.5965 98.5798L77.9283 100.38L83.3282 102.384ZM78.5965 98.5798L81.2694 91.3799L79.4919 90.7201L76.819 97.9199L78.5965 98.5798ZM86.6693 93.3846L87.3375 91.5847L81.9376 89.58L81.2694 91.3799L86.6693 93.3846ZM85.7963 101.253L88.4693 94.0529L86.6693 93.3846L83.9964 100.584L85.7963 101.253ZM94.3191 96.2246L94.9874 94.4246L93.1874 93.7564L94.5239 90.1565L92.7464 89.4966L88.0688 102.096L89.8463 102.756L92.5192 95.5564L94.3191 96.2246ZM90.978 105.224L91.6462 103.424L89.8463 102.756L89.178 104.556L90.978 105.224ZM95.031 106.703L99.0404 95.9037L97.2629 95.2438L93.2535 106.044L95.031 106.703ZM100.368 92.3263L101.037 90.5263L99.2592 89.8664L98.591 91.6664L100.368 92.3263ZM102.634 93.1673L97.2964 107.545L99.0739 108.204L102.407 99.2271L104.207 99.8953L104.883 98.0728L103.083 97.4046L104.411 93.8272L102.634 93.1673ZM106.211 94.4954L106.88 92.6954L105.08 92.0272L104.411 93.8272L106.211 94.4954ZM111.849 108.877L114.53 101.654L112.73 100.986L110.049 108.208L111.849 108.877ZM104.453 112.249L106.253 112.918L107.581 109.34L109.381 110.008L110.049 108.208L106.449 106.872L104.453 112.249ZM103.785 114.049L104.453 112.249L100.875 110.921L100.207 112.721L103.785 114.049ZM106.449 106.872L109.13 99.6496L107.33 98.9813L104.649 106.204L106.449 106.872Z" fill="white"/>
</svg>
