<svg width="226" height="175" viewBox="0 0 226 175" fill="none" xmlns="http://www.w3.org/2000/svg">
<ellipse cx="112.999" cy="87.4012" rx="100.5" ry="52.5" transform="rotate(-22.8461 112.999 87.4012)" fill="#F4FF09"/>
<path d="M71.3207 99.7869L70.5752 98.0175L68.8058 98.7629L69.5513 100.532L71.3207 99.7869ZM74.7601 112.896L76.5295 112.15L72.8116 103.326L67.5034 105.562L68.2489 107.331L71.7876 105.84L73.2786 109.379L71.5092 110.125L72.2546 111.894L74.024 111.149L74.7601 112.896ZM73.0001 113.663L72.2546 111.894L66.9465 114.13L67.6919 115.9L73.0001 113.663ZM68.8058 98.7629L68.0604 96.9936L60.9829 99.9754L61.7283 101.745L68.8058 98.7629ZM66.9465 114.13L61.7283 101.745L59.9811 102.481L65.1992 114.867L66.9465 114.13ZM81.4339 110.084L76.9612 99.4679L75.2139 100.204L79.6866 110.82L81.4339 110.084ZM75.4796 95.9512L74.7341 94.1819L72.9869 94.918L73.7323 96.6874L75.4796 95.9512ZM84.3811 98.4513L83.6356 96.6819L81.8662 97.4274L80.3753 93.8886L78.6281 94.6248L83.8462 107.01L85.5935 106.274L82.6117 99.1968L84.3811 98.4513ZM88.1083 107.298L87.3629 105.529L85.5935 106.274L86.339 108.044L88.1083 107.298ZM86.2967 89.3105L84.5495 90.0466L91.2492 105.949L92.9965 105.213L90.024 98.1573L91.7934 97.4119L91.0479 95.6425L89.2785 96.388L86.2967 89.3105ZM94.5867 94.1516L93.8412 92.3822L90.3025 93.8731L91.0479 95.6425L94.5867 94.1516ZM100.083 102.253L96.356 93.4062L94.5867 94.1516L98.3139 102.998L100.083 102.253ZM108.547 98.6873L107.801 96.9179L104.241 98.4181L104.986 100.188L108.547 98.6873ZM104.241 98.4181L100.513 89.5712L98.766 90.3074L102.493 99.1543L104.241 98.4181ZM105.821 87.3349L108.803 94.4124L107.034 95.1579L107.779 96.9272L109.549 96.1818L110.285 97.929L112.054 97.1836L107.591 86.5894L105.821 87.3349ZM113.239 86.2933L118.547 84.0569L117.792 82.2654L112.484 84.5018L110.257 79.2158L108.51 79.9519L115.21 95.8542L122.265 92.8817L121.529 91.1344L116.221 93.3708L113.239 86.2933ZM123.298 90.389L120.316 83.3115L118.547 84.0569L121.529 91.1344L123.298 90.389ZM128.477 77.764L132.949 88.3803L134.697 87.6441L130.979 78.8193L132.748 78.0739L131.993 76.2824L128.477 77.764ZM146.681 82.6211L145.936 80.8517L140.627 83.0881L141.373 84.8574L146.681 82.6211ZM147.705 80.1062L146.959 78.3369L145.19 79.0823L145.936 80.8517L147.705 80.1062ZM142.954 73.7742L142.208 72.0048L136.9 74.2412L137.646 76.0105L142.954 73.7742ZM146.214 76.5675L144.723 73.0287L142.954 73.7742L143.699 75.5436L138.391 77.7799L137.646 76.0105L135.898 76.7467L138.88 83.8242L140.627 83.0881L139.136 79.5493L146.214 76.5675ZM149.626 70.9632L154.934 68.7268L154.188 66.9575L147.133 69.93L153.087 84.0629L154.835 83.3267L153.344 79.788L158.652 77.5516L157.916 75.8044L152.608 78.0407L149.626 70.9632ZM159.685 75.0589L156.703 67.9814L154.934 68.7268L157.916 75.8044L159.685 75.0589ZM170.641 72.5264L169.896 70.757L164.588 72.9934L165.333 74.7628L170.641 72.5264ZM164.588 72.9934L161.606 65.9159L159.859 66.652L162.84 73.7295L164.588 72.9934ZM166.914 63.6795L166.169 61.9101L160.86 64.1465L161.606 65.9159L166.914 63.6795ZM171.665 70.0116L168.683 62.9341L166.914 63.6795L169.896 70.757L171.665 70.0116Z" fill="black"/>
</svg>
